<svg style="" width="25.750000" height="15.750000" version="1.1" xmlns="http://www.w3.org/2000/svg">
<path d="M0.375002 7.757981 L6.375002 13.757981 C6.833337 14.257983 7.302083 14.268400 7.781252 13.789231 C8.260421 13.310061 8.250004 12.841316 7.750002 12.382981 L3.500002 8.070481 L18.062502 8.070481 C19.937511 8.070481 21.406247 8.778807 22.468752 10.195481 C23.531257 11.612154 24.062502 13.237138 24.062502 15.070481 C24.062502 15.362149 24.156251 15.601730 24.343752 15.789231 C24.531253 15.976731 24.770834 16.070481 25.062502 16.070481 C25.354170 16.070481 25.593751 15.976731 25.781252 15.789231 C25.968753 15.601730 26.062502 15.362149 26.062502 15.070481 C26.062502 12.570468 25.416675 10.445489 24.125002 8.695481 C22.833329 6.945472 20.812516 6.070481 18.062502 6.070481 L3.500002 6.070481 L7.750002 1.757981 C8.250004 1.299645 8.260421 0.830900 7.781252 0.351731 C7.302083 -0.127439 6.833337 -0.117022 6.375002 0.382981 L0.375002 6.382981 C-0.125001 6.841316 -0.125001 7.299645 0.375002 7.757981 Z M28.062502 22.070481" style="fill:black"/>
</svg>