<svg width="19" height="20" viewBox="0 0 19 20" fill="none" xmlns="http://www.w3.org/2000/svg">
<path d="M8.96 19.3205C8.784 18.2805 8.32 17.1605 7.568 15.9605C6.816 14.7445 5.744 13.6165 4.352 12.5765C2.976 11.5365 1.6 10.8725 0.224 10.5845V9.5765C1.584 9.2565 2.888 8.6645 4.136 7.8005C5.4 6.9205 6.456 5.8645 7.304 4.6325C8.168 3.3685 8.72 2.1205 8.96 0.8885H9.968C10.112 1.6885 10.4 2.5125 10.832 3.3605C11.264 4.1925 11.816 4.9925 12.488 5.7605C13.176 6.5125 13.944 7.1925 14.792 7.8005C16.056 8.6965 17.344 9.2885 18.656 9.5765V10.5845C17.776 10.7605 16.864 11.1205 15.92 11.6645C14.992 12.2085 14.128 12.8565 13.328 13.6085C12.528 14.3445 11.872 15.1205 11.36 15.9365C10.608 17.1365 10.144 18.2645 9.968 19.3205H8.96Z" fill="#4E4A67"/>
</svg>
