<svg width="80" height="92" viewBox="0 0 80 92" fill="none" xmlns="http://www.w3.org/2000/svg">
<path d="M40 0L80 45.5285L40 91.0569L0 45.5285L40 0Z" fill="#4E4A67"/>
<path d="M50.9699 44.4642L40.7046 34.2332C40.6359 34.1645 40.5615 34.0958 40.4814 34.0272C40.4013 33.9585 40.3269 33.9242 40.2583 33.9242C40.1209 33.8555 39.9493 33.8212 39.7433 33.8212C39.5373 33.8212 39.3198 33.8555 39.091 33.9242C39.0223 33.9928 38.9479 34.0443 38.8678 34.0787C38.7877 34.113 38.7133 34.1645 38.6446 34.2332L28.3793 44.4642C28.1046 44.7617 27.9673 45.1051 27.9673 45.4942C27.9673 45.8833 28.1046 46.2266 28.3793 46.5241C28.6768 46.8217 29.0201 46.9704 29.4092 46.9704C29.7983 46.9704 30.1417 46.8217 30.4392 46.5241L38.1983 38.765V55.7595C38.1983 56.1944 38.3356 56.5492 38.6103 56.8238C38.885 57.0985 39.2397 57.2358 39.6746 57.2358C40.1095 57.2358 40.4642 57.0985 40.7389 56.8238C41.0136 56.5492 41.1509 56.1944 41.1509 55.7595V38.765L48.91 46.5241C49.0473 46.6843 49.2133 46.7988 49.4078 46.8674C49.6024 46.9361 49.7797 46.9704 49.94 46.9704C50.0773 46.9704 50.2432 46.9361 50.4378 46.8674C50.6323 46.7988 50.8097 46.6843 50.9699 46.5241C51.2446 46.2266 51.3819 45.8833 51.3819 45.4942C51.3819 45.1051 51.2446 44.7617 50.9699 44.4642Z" fill="white"/>
</svg>
