<svg width="24" height="25" viewBox="0 0 24 25" fill="none" xmlns="http://www.w3.org/2000/svg">
<path d="M12 6.78125C11.1458 6.78125 10.3438 6.9375 9.59375 7.25C8.84375 7.58333 8.19271 8.02604 7.64062 8.57812C7.08854 9.13021 6.64583 9.78125 6.3125 10.5312C6 11.2813 5.84375 12.0833 5.84375 12.9375C5.84375 13.7917 6 14.5937 6.3125 15.3438C6.64583 16.0938 7.08854 16.7448 7.64062 17.2969C8.19271 17.849 8.84375 18.2917 9.59375 18.625C10.3438 18.9375 11.1458 19.0938 12 19.0938C12.8542 19.0938 13.6562 18.9375 14.4062 18.625C15.1563 18.2917 15.8073 17.849 16.3594 17.2969C16.9115 16.7448 17.3542 16.0938 17.6875 15.3438C18 14.5937 18.1562 13.7917 18.1562 12.9375C18.1562 12.0833 18 11.2813 17.6875 10.5312C17.3542 9.78125 16.9115 9.13021 16.3594 8.57812C15.8073 8.02604 15.1563 7.58333 14.4062 7.25C13.6562 6.9375 12.8542 6.78125 12 6.78125ZM12 16.9375C10.8958 16.9375 9.95313 16.5469 9.17188 15.7656C8.39062 14.9844 8 14.0417 8 12.9375C8 11.8333 8.39062 10.8906 9.17188 10.1094C9.95313 9.32812 10.8958 8.9375 12 8.9375C13.1042 8.9375 14.0469 9.32812 14.8281 10.1094C15.6094 10.8906 16 11.8333 16 12.9375C16 14.0417 15.6094 14.9844 14.8281 15.7656C14.0469 16.5469 13.1042 16.9375 12 16.9375ZM19.8438 6.53125C19.8438 6.94792 19.7031 7.29167 19.4219 7.5625C19.1406 7.83333 18.8021 7.96875 18.4062 7.96875C18.0104 7.96875 17.6719 7.83333 17.3906 7.5625C17.1094 7.29167 16.9688 6.94792 16.9688 6.53125C16.9688 6.13542 17.1094 5.80208 17.3906 5.53125C17.6719 5.26042 18.0104 5.125 18.4062 5.125C18.8021 5.125 19.1406 5.26042 19.4219 5.53125C19.7031 5.80208 19.8438 6.13542 19.8438 6.53125ZM23.375 5.09375C23.0625 4.28125 22.6042 3.57292 22 2.96875C21.3958 2.36458 20.6979 1.90625 19.9062 1.59375L19.875 1.5625C19.4375 1.39583 18.974 1.26562 18.4844 1.17188C17.9948 1.07812 17.4896 1.03125 16.9688 1.03125H16.9375C16.3125 0.989583 15.7396 0.963542 15.2188 0.953125C14.6979 0.942708 13.625 0.9375 12 0.9375C10.375 0.9375 9.30209 0.942708 8.78125 0.953125C8.26041 0.963542 7.6875 0.989583 7.0625 1.03125C6.54166 1.03125 6.03125 1.08333 5.53125 1.1875C5.03125 1.29167 4.55209 1.42708 4.09375 1.59375L4.15625 1.5625C3.34375 1.89584 2.63542 2.36458 2.03125 2.96875C1.42708 3.57292 0.968752 4.26041 0.65625 5.03125L0.625 5.09375C0.458333 5.51042 0.328125 5.96875 0.234375 6.46875C0.140625 6.96875 0.083333 7.47916 0.0625 8C0.041667 8.64584 0.026042 9.22396 0.015625 9.73438C0.005208 10.2448 0 11.3125 0 12.9375C0 14.5625 0.005208 15.6354 0.015625 16.1562C0.026042 16.6771 0.041667 17.2604 0.0625 17.9062C0.083333 18.4063 0.140625 18.8958 0.234375 19.375C0.328125 19.8542 0.458333 20.3333 0.625 20.8125C0.958335 21.625 1.42708 22.3333 2.03125 22.9375C2.63542 23.5417 3.32291 24 4.09375 24.3125H4.15625C4.57292 24.5 5.02604 24.6458 5.51562 24.75C6.00521 24.8542 6.51041 24.9062 7.03125 24.9062H7.0625C7.70834 24.9479 8.28646 24.974 8.79688 24.9844C9.30729 24.9948 10.375 25 12 25C13.625 25 14.6979 24.9948 15.2188 24.9844C15.7396 24.974 16.3229 24.9479 16.9688 24.9062C17.4896 24.9062 18 24.8542 18.5 24.75C19 24.6458 19.4792 24.5104 19.9375 24.3438L19.875 24.375C20.6875 24.0417 21.3958 23.5729 22 22.9688C22.6042 22.3646 23.0625 21.6771 23.375 20.9062V20.8438C23.5625 20.3854 23.7031 19.9115 23.7969 19.4219C23.8906 18.9323 23.9375 18.4375 23.9375 17.9375C23.9583 17.2917 23.974 16.7135 23.9844 16.2031C23.9948 15.6927 24 14.625 24 13C24 11.3542 24 10.276 24 9.76562C24 9.25521 23.9792 8.67709 23.9375 8.03125C23.9375 7.51041 23.8854 6.99479 23.7812 6.48438C23.6771 5.97396 23.5313 5.48959 23.3438 5.03125L23.375 5.09375ZM21.75 17.7812C21.75 18.1979 21.7135 18.599 21.6406 18.9844C21.5677 19.3698 21.4583 19.7396 21.3125 20.0938L21.3438 20.0312C21.1354 20.5729 20.8333 21.0365 20.4375 21.4219C20.0417 21.8073 19.5938 22.1042 19.0938 22.3125H19.0625C18.7292 22.4583 18.375 22.5625 18 22.625C17.625 22.6875 17.2396 22.7292 16.8438 22.75C16.1979 22.7708 15.6302 22.7865 15.1406 22.7969C14.651 22.8073 13.5938 22.8125 11.9688 22.8125C10.3437 22.8125 9.28646 22.8073 8.79688 22.7969C8.30729 22.7865 7.73959 22.7708 7.09375 22.75C6.67708 22.7292 6.28125 22.6823 5.90625 22.6094C5.53125 22.5365 5.16667 22.4375 4.8125 22.3125H4.84375C4.32291 22.125 3.86458 21.8333 3.46875 21.4375C3.07292 21.0417 2.77083 20.5833 2.5625 20.0625V20.0312C2.4375 19.7187 2.33854 19.375 2.26562 19C2.19271 18.625 2.15625 18.2292 2.15625 17.8125C2.11458 17.1875 2.09375 16.625 2.09375 16.125C2.09375 15.625 2.09375 14.5625 2.09375 12.9375C2.09375 11.3125 2.09375 10.2552 2.09375 9.76562C2.09375 9.27604 2.11458 8.70834 2.15625 8.0625C2.15625 7.66667 2.19271 7.27604 2.26562 6.89062C2.33854 6.50521 2.44792 6.13542 2.59375 5.78125L2.5625 5.8125C2.77083 5.29166 3.07292 4.83333 3.46875 4.4375C3.86458 4.04167 4.32291 3.73958 4.84375 3.53125C5.17708 3.40625 5.53125 3.30729 5.90625 3.23438C6.28125 3.16146 6.67708 3.125 7.09375 3.125C7.71875 3.10417 8.28125 3.08854 8.78125 3.07812C9.28125 3.06771 10.3437 3.0625 11.9688 3.0625C13.5938 3.0625 14.651 3.0625 15.1406 3.0625C15.6302 3.0625 16.1979 3.08333 16.8438 3.125C17.2396 3.125 17.625 3.16146 18 3.23438C18.375 3.30729 18.7396 3.41667 19.0938 3.5625L19.0625 3.53125C19.5833 3.73958 20.0417 4.04167 20.4375 4.4375C20.8333 4.83333 21.1354 5.29166 21.3438 5.8125C21.4688 6.14583 21.5677 6.5 21.6406 6.875C21.7135 7.25 21.75 7.63542 21.75 8.03125V8.0625C21.7708 8.6875 21.7865 9.25 21.7969 9.75C21.8073 10.25 21.8125 11.3125 21.8125 12.9375C21.8125 14.5625 21.8125 15.6198 21.8125 16.1094C21.8125 16.599 21.8021 17.1562 21.7812 17.7812H21.75Z" fill="white"/>
</svg>
