<svg width="27" height="27" viewBox="0 0 27 27" fill="none" xmlns="http://www.w3.org/2000/svg">
<path d="M19.5 16H24C24.25 14.8333 24.375 13.9375 24.375 13.3125C24.375 12.6875 24.25 11.7917 24 10.625H19.5C19.625 11.5 19.6875 12.3958 19.6875 13.3125C19.6875 14.2292 19.625 15.125 19.5 16ZM17.125 23.375C18.1667 23.0417 19.25 22.4063 20.375 21.4688C21.5 20.5312 22.3542 19.5833 22.9375 18.625H19C18.5833 20.2917 17.9583 21.875 17.125 23.375ZM16.8125 16C16.9375 15.125 17 14.2292 17 13.3125C17 12.3958 16.9375 11.5 16.8125 10.625H10.5625C10.4375 11.5 10.375 12.3958 10.375 13.3125C10.375 14.2292 10.4375 15.125 10.5625 16H16.8125ZM13.6875 23.9375C14.8542 22.2292 15.7083 20.4583 16.25 18.625H11.125C11.6667 20.4583 12.5208 22.2292 13.6875 23.9375ZM8.375 8C8.875 6.20832 9.5 4.62501 10.25 3.25C9.20833 3.58333 8.11459 4.21875 6.96875 5.15625C5.82291 6.09375 4.97917 7.04166 4.4375 8H8.375ZM4.4375 18.625C4.97917 19.5833 5.82291 20.5312 6.96875 21.4688C8.11459 22.4063 9.20833 23.0417 10.25 23.375C9.41666 21.875 8.79167 20.2917 8.375 18.625H4.4375ZM3.375 16H7.875C7.75 15.125 7.6875 14.2292 7.6875 13.3125C7.6875 12.3958 7.75 11.5 7.875 10.625H3.375C3.125 11.7917 3 12.6875 3 13.3125C3 13.9375 3.125 14.8333 3.375 16ZM13.6875 2.6875C12.5208 4.39584 11.6667 6.16666 11.125 8H16.25C15.7083 6.16666 14.8542 4.39584 13.6875 2.6875ZM22.9375 8C22.3542 7.04166 21.5 6.09375 20.375 5.15625C19.25 4.21875 18.1667 3.58333 17.125 3.25C17.875 4.62501 18.5 6.20832 19 8H22.9375ZM4.25 3.9375C6.87501 1.31249 10.0208 0 13.6875 0C17.3542 0 20.4896 1.30207 23.0938 3.90625C25.6979 6.51043 27 9.64581 27 13.3125C27 16.9792 25.6979 20.1146 23.0938 22.7188C20.4896 25.3229 17.3542 26.625 13.6875 26.625C10.0208 26.625 6.88543 25.3229 4.28125 22.7188C1.67707 20.1146 0.375 16.9792 0.375 13.3125C0.375 9.64581 1.66665 6.52085 4.25 3.9375Z" fill="#423E60"/>
</svg>
