<svg width="32" height="24" viewBox="0 0 32 24" fill="none" xmlns="http://www.w3.org/2000/svg">
<path d="M28 0H4C2.89583 0 1.95313 0.390621 1.17188 1.17188C0.390621 1.95313 0 2.89583 0 4V20C0 21.1042 0.390621 22.0469 1.17188 22.8281C1.95313 23.6094 2.89583 24 4 24H28C29.1042 24 30.0469 23.6094 30.8281 22.8281C31.6094 22.0469 32 21.1042 32 20V4C32 2.89583 31.6094 1.95313 30.8281 1.17188C30.0469 0.390621 29.1042 0 28 0ZM29 2L16 12L3 2H29ZM2 20V4L11 11L2.09375 20.5625C2.07292 20.4792 2.05208 20.3906 2.03125 20.2969C2.01042 20.2031 2 20.1042 2 20ZM3.5625 21.9375L12.5938 12.3438L16 14.9062L19.2812 12.3125L28.4375 21.9375C28.3958 21.9583 27.0833 21.9688 24.5 21.9688C21.9167 21.9688 19.0833 21.9688 16 21.9688C12.9167 21.9688 10.0833 21.9688 7.5 21.9688C4.91665 21.9688 3.60417 21.9583 3.5625 21.9375ZM30 20C30 20.1042 29.9896 20.2031 29.9688 20.2969C29.9479 20.3906 29.9271 20.4792 29.9062 20.5625L21 11L30 4V20Z" fill="white"/>
</svg>
