<svg width="20" height="19" viewBox="0 0 20 19" fill="none" xmlns="http://www.w3.org/2000/svg">
<path d="M1 2.3125H19C19.2708 2.3125 19.5052 2.21354 19.7031 2.01562C19.901 1.81771 20 1.58334 20 1.3125C20 1.04166 19.901 0.807293 19.7031 0.609375C19.5052 0.411457 19.2708 0.3125 19 0.3125H1C0.729165 0.3125 0.494793 0.411457 0.296875 0.609375C0.098957 0.807293 0 1.04166 0 1.3125C0 1.58334 0.098957 1.81771 0.296875 2.01562C0.494793 2.21354 0.729165 2.3125 1 2.3125ZM19 16.3125H1C0.729165 16.3125 0.494793 16.4115 0.296875 16.6094C0.098957 16.8073 0 17.0417 0 17.3125C0 17.5833 0.098957 17.8177 0.296875 18.0156C0.494793 18.2135 0.729165 18.3125 1 18.3125H19C19.2708 18.3125 19.5052 18.2135 19.7031 18.0156C19.901 17.8177 20 17.5833 20 17.3125C20 17.0417 19.901 16.8073 19.7031 16.6094C19.5052 16.4115 19.2708 16.3125 19 16.3125ZM19 8.3125H1C0.729165 8.3125 0.494793 8.41146 0.296875 8.60938C0.098957 8.80729 0 9.04167 0 9.3125C0 9.58333 0.098957 9.81771 0.296875 10.0156C0.494793 10.2135 0.729165 10.3125 1 10.3125H19C19.2708 10.3125 19.5052 10.2135 19.7031 10.0156C19.901 9.81771 20 9.58333 20 9.3125C20 9.04167 19.901 8.80729 19.7031 8.60938C19.5052 8.41146 19.2708 8.3125 19 8.3125Z" fill="#423E60"/>
</svg>
