<svg width="17" height="16" viewBox="0 0 17 16" fill="none" xmlns="http://www.w3.org/2000/svg">
<path d="M8.26549 15.84C8.11883 14.9733 7.73216 14.04 7.10549 13.04C6.47883 12.0267 5.58549 11.0867 4.42549 10.22C3.27883 9.35333 2.13216 8.8 0.985494 8.56V7.72C2.11883 7.45333 3.20549 6.96 4.24549 6.24C5.29883 5.50667 6.17883 4.62667 6.88549 3.6C7.60549 2.54667 8.06549 1.50667 8.26549 0.48H9.10549C9.22549 1.14667 9.46549 1.83333 9.82549 2.54C10.1855 3.23333 10.6455 3.9 11.2055 4.54C11.7788 5.16667 12.4188 5.73333 13.1255 6.24C14.1788 6.98667 15.2522 7.48 16.3455 7.72V8.56C15.6122 8.70667 14.8522 9.00667 14.0655 9.46C13.2922 9.91333 12.5722 10.4533 11.9055 11.08C11.2388 11.6933 10.6922 12.34 10.2655 13.02C9.63883 14.02 9.25216 14.96 9.10549 15.84H8.26549Z" fill="#4E4A67"/>
</svg>
