<svg width="626" height="1435" viewBox="0 0 626 1435" fill="none" xmlns="http://www.w3.org/2000/svg">
<path d="M724.362 1111.02C731.219 1114.52 731.717 1124.13 725.258 1128.32L478.94 1288.06C472.481 1292.25 463.91 1287.88 463.512 1280.19L448.329 986.999C447.931 979.311 456.004 974.075 462.861 977.574L724.362 1111.02Z" fill="#F2F2F2"/>
<path d="M395.945 647.384C402.802 650.883 403.3 660.493 396.841 664.682L150.523 824.425C144.064 828.614 135.493 824.24 135.095 816.552L119.912 523.363C119.514 515.675 127.587 510.439 134.444 513.938L395.945 647.384Z" fill="#F2F2F2"/>
<path d="M661.505 515.975C668.361 519.474 668.859 529.083 662.4 533.272L470.577 657.674C464.119 661.863 455.548 657.489 455.149 649.801L443.326 421.477C442.927 413.789 451.001 408.553 457.858 412.052L661.505 515.975Z" fill="#F2F2F2"/>
<path d="M617.196 704.518C624.053 708.017 624.55 717.627 618.092 721.816L339.076 902.764C332.618 906.953 324.047 902.579 323.648 894.891L306.45 562.783C306.052 555.095 314.125 549.859 320.982 553.358L617.196 704.518Z" fill="#E4DCEB"/>
<path d="M798.684 670.587C805.541 674.086 806.038 683.696 799.58 687.884L553.261 847.628C546.803 851.817 538.232 847.443 537.834 839.755L522.651 546.565C522.253 538.878 530.326 533.642 537.183 537.141L798.684 670.587Z" fill="#E4DCEB"/>
<path d="M470.267 206.951C477.124 210.45 477.621 220.06 471.163 224.248L224.844 383.992C218.386 388.181 209.815 383.807 209.417 376.119L194.234 82.9295C193.836 75.2418 201.909 70.006 208.766 73.5051L470.267 206.951Z" fill="#E4DCEB"/>
<path d="M793.104 930.223C799.961 933.722 800.458 943.332 794 947.521L501.179 1137.42C494.72 1141.61 486.149 1137.24 485.751 1129.55L467.702 781.008C467.304 773.321 475.377 768.085 482.234 771.584L793.104 930.223Z" fill="#D5D4EF"/>
<path d="M464.687 466.587C471.544 470.086 472.041 479.696 465.583 483.885L172.762 673.786C166.303 677.975 157.732 673.601 157.334 665.913L139.285 317.372C138.887 309.685 146.96 304.449 153.817 307.948L464.687 466.587Z" fill="#D5D4EF"/>
<path d="M559.152 260.426C566.008 263.925 566.506 273.535 560.047 277.723L361.685 406.366C355.226 410.555 346.655 406.181 346.257 398.494L334.03 162.385C333.632 154.697 341.705 149.462 348.562 152.961L559.152 260.426Z" fill="#D5D4EF"/>
</svg>
