<svg width="818" height="1660" viewBox="0 0 818 1660" fill="none" xmlns="http://www.w3.org/2000/svg">
<path d="M-33.7833 692.375C-31.3832 699.689 -37.8011 706.859 -45.3355 705.28L-332.679 645.076C-340.213 643.497 -343.213 634.354 -338.079 628.619L-142.269 409.874C-137.134 404.139 -127.716 406.112 -125.316 413.426L-33.7833 692.375Z" fill="#F2F2F2"/>
<path d="M153.61 1346.64C156.01 1353.96 149.593 1361.13 142.058 1359.55L-81.7137 1312.66C-89.2481 1311.08 -92.2482 1301.94 -87.1139 1296.21L65.3755 1125.86C70.5098 1120.12 79.9278 1122.09 82.3279 1129.41L153.61 1346.64Z" fill="#F2F2F2"/>
<path d="M247.249 786.243C249.649 793.557 243.231 800.727 235.697 799.148L11.925 752.263C4.39057 750.685 1.39048 741.542 6.5248 735.806L159.014 565.456C164.148 559.721 173.566 561.694 175.967 569.008L247.249 786.243Z" fill="#F2F2F2"/>
<path d="M-10.6802 1449.21C-8.28014 1456.53 -14.698 1463.7 -22.2324 1462.12L-347.719 1393.92C-355.253 1392.34 -358.253 1383.2 -353.119 1377.46L-131.316 1129.68C-126.182 1123.95 -116.764 1125.92 -114.364 1133.23L-10.6802 1449.21Z" fill="#E4DCEB"/>
<path d="M82.9584 888.812C85.3585 896.127 78.9406 903.296 71.4062 901.718L-254.08 833.522C-261.614 831.943 -264.615 822.8 -259.48 817.064L-37.6775 569.283C-32.5432 563.548 -23.1251 565.521 -20.7251 572.835L82.9584 888.812Z" fill="#E4DCEB"/>
<path d="M235.65 992.613C238.05 999.927 231.632 1007.1 224.098 1005.52L-63.2457 945.314C-70.7801 943.735 -73.7802 934.593 -68.6459 928.857L127.164 710.112C132.299 704.377 141.717 706.35 144.117 713.664L235.65 992.613Z" fill="#E4DCEB"/>
<path d="M329.288 432.213C331.688 439.528 325.27 446.697 317.736 445.119L30.3924 384.914C22.8581 383.336 19.8579 374.193 24.9923 368.457L220.802 149.713C225.937 143.977 235.355 145.95 237.755 153.265L329.288 432.213Z" fill="#E4DCEB"/>
<path d="M48.7482 1172.92C51.1483 1180.23 44.7304 1187.4 37.196 1185.82L-304.395 1114.25C-311.929 1112.67 -314.93 1103.53 -309.795 1097.8L-77.0179 837.754C-71.8835 832.019 -62.4655 833.992 -60.0655 841.306L48.7482 1172.92Z" fill="#D5D4EF"/>
<path d="M142.387 612.518C144.787 619.833 138.369 627.002 130.835 625.424L-210.756 553.853C-218.291 552.275 -221.291 543.132 -216.157 537.396L16.6208 277.355C21.7551 271.619 31.1731 273.592 33.5732 280.907L142.387 612.518Z" fill="#D5D4EF"/>
<path d="M261.043 1093.19C263.443 1100.5 257.025 1107.67 249.491 1106.09L18.0904 1057.61C10.556 1056.03 7.55594 1046.89 12.6903 1041.15L170.378 864.995C175.512 859.26 184.93 861.233 187.331 868.547L261.043 1093.19Z" fill="#D5D4EF"/>
<path d="M354.682 532.788C357.082 540.102 350.664 547.272 343.13 545.693L111.729 497.21C104.195 495.631 101.195 486.488 106.329 480.753L264.017 304.596C269.151 298.86 278.569 300.833 280.969 308.147L354.682 532.788Z" fill="#D5D4EF"/>
</svg>
