<svg width="741" height="1648" viewBox="0 0 741 1648" fill="none" xmlns="http://www.w3.org/2000/svg">
<path d="M283.05 536.444C275.625 534.415 273.18 525.108 278.651 519.692L487.273 313.131C492.744 307.715 502.026 310.251 503.981 317.697L578.557 601.65C580.512 609.095 573.674 615.866 566.249 613.836L283.05 536.444Z" fill="#F2F2F2"/>
<path d="M699.008 923.478C691.583 921.449 689.138 912.142 694.609 906.726L903.231 700.165C908.702 694.749 917.984 697.285 919.939 704.731L994.515 988.684C996.47 996.129 989.632 1002.9 982.207 1000.87L699.008 923.478Z" fill="#F2F2F2"/>
<path d="M471.319 744.802C463.893 742.773 461.449 733.466 466.919 728.049L629.386 567.188C634.857 561.772 644.139 564.308 646.094 571.754L704.171 792.885C706.126 800.331 699.288 807.101 691.862 805.072L471.319 744.802Z" fill="#F2F2F2"/>
<path d="M465.777 1106.22C458.351 1104.19 455.907 1094.88 461.377 1089.46L623.844 928.603C629.315 923.187 638.597 925.724 640.552 933.169L698.629 1154.3C700.584 1161.75 693.746 1168.52 686.32 1166.49L465.777 1106.22Z" fill="#F2F2F2"/>
<path d="M339.56 377.316C332.134 375.287 329.69 365.98 335.16 360.564L571.476 126.583C576.947 121.167 586.229 123.704 588.184 131.149L672.659 452.795C674.614 460.241 667.777 467.011 660.351 464.982L339.56 377.316Z" fill="#E4DCEB"/>
<path d="M470.758 912.601C463.333 910.572 460.888 901.265 466.359 895.849L702.675 661.868C708.145 656.452 717.427 658.989 719.382 666.434L803.857 988.08C805.813 995.525 798.975 1002.3 791.549 1000.27L470.758 912.601Z" fill="#E4DCEB"/>
<path d="M376.241 1148.82C372.094 1142.33 376.522 1133.79 384.212 1133.44L677.492 1120.12C685.182 1119.77 690.367 1127.87 686.824 1134.71L551.725 1395.36C548.183 1402.19 538.57 1402.63 534.423 1396.14L376.241 1148.82Z" fill="#E4DCEB"/>
<path d="M715.942 1369.82C708.516 1367.79 706.072 1358.48 711.542 1353.06L920.165 1146.5C925.635 1141.09 934.917 1143.62 936.873 1151.07L1011.45 1435.02C1013.4 1442.47 1006.57 1449.24 999.14 1447.21L715.942 1369.82Z" fill="#E4DCEB"/>
<path d="M530.197 392.779C526.416 386.074 531.312 377.789 539.009 377.868L888 381.407C895.697 381.485 900.424 389.867 896.507 396.494L718.947 696.959C715.031 703.586 705.409 703.488 701.627 696.783L530.197 392.779Z" fill="#D5D4EF"/>
<path d="M713.401 1192.99C705.819 1194.32 699.636 1186.95 702.271 1179.72L821.715 851.785C824.35 844.552 833.827 842.883 838.773 848.782L1063.05 1116.19C1068 1122.09 1064.7 1131.13 1057.12 1132.46L713.401 1192.99Z" fill="#6053AD"/>
<path d="M202.072 948.531C194.646 946.501 192.202 937.195 197.672 931.778L365.678 765.433C371.148 760.017 380.43 762.553 382.386 769.999L442.442 998.669C444.398 1006.11 437.56 1012.88 430.134 1010.86L202.072 948.531Z" fill="#D5D4EF"/>
<path d="M618.029 1335.56C610.604 1333.54 608.159 1324.23 613.63 1318.81L781.636 1152.47C787.106 1147.05 796.388 1149.59 798.343 1157.03L858.4 1385.7C860.355 1393.15 853.517 1399.92 846.092 1397.89L618.029 1335.56Z" fill="#D5D4EF"/>
</svg>
